<mxfile host="Electron" modified="2024-03-11T13:42:41.031Z" agent="Mozilla/5.0 (Macintosh; Intel Mac OS X 10_15_7) AppleWebKit/537.36 (KHTML, like Gecko) draw.io/21.2.8 Chrome/112.0.5615.165 Electron/24.2.0 Safari/537.36" etag="X5Y0n6OUiwaMtkSVBN8V" version="21.2.8" type="device" pages="4">
  <diagram id="EHuUJHggIL5r_RXWNjE-" name="integration-overview">
    <mxGraphModel dx="1754" dy="950" grid="1" gridSize="10" guides="1" tooltips="1" connect="1" arrows="1" fold="1" page="1" pageScale="1" pageWidth="1169" pageHeight="1654" math="0" shadow="0">
      <root>
        <mxCell id="0" />
        <mxCell id="1" parent="0" />
        <mxCell id="KQn6Uf30BCrk-3s5nFrq-4" value="" style="rounded=0;whiteSpace=wrap;html=1;shadow=0;glass=0;dashed=1;sketch=0;fillColor=#f5f5f5;strokeColor=#666666;fontColor=#333333;" parent="1" vertex="1">
          <mxGeometry x="120" y="180" width="560" height="530" as="geometry" />
        </mxCell>
        <mxCell id="Xm17Ci6VOuXUE4DC-9qw-5" style="edgeStyle=orthogonalEdgeStyle;rounded=0;orthogonalLoop=1;jettySize=auto;html=1;entryX=0;entryY=0.5;entryDx=0;entryDy=0;curved=1;" parent="1" source="KQn6Uf30BCrk-3s5nFrq-1" target="TgrR3PMiWVgX_3PpwUvV-15" edge="1">
          <mxGeometry relative="1" as="geometry">
            <mxPoint x="180" y="207.5" as="targetPoint" />
          </mxGeometry>
        </mxCell>
        <mxCell id="KQn6Uf30BCrk-3s5nFrq-1" value="kafka" style="rounded=1;whiteSpace=wrap;html=1;fillColor=#dae8fc;strokeColor=#6c8ebf;shadow=1;fontFamily=Verdana;" parent="1" vertex="1">
          <mxGeometry x="10" y="200" width="80" height="30" as="geometry" />
        </mxCell>
        <mxCell id="KQn6Uf30BCrk-3s5nFrq-5" value="User application" style="text;html=1;strokeColor=#b85450;fillColor=#f8cecc;align=center;verticalAlign=middle;whiteSpace=wrap;rounded=0;shadow=0;glass=0;dashed=1;sketch=0;fontFamily=Verdana;fontSize=16;" parent="1" vertex="1">
          <mxGeometry x="120" y="690" width="150" height="20" as="geometry" />
        </mxCell>
        <mxCell id="Xm17Ci6VOuXUE4DC-9qw-6" style="edgeStyle=orthogonalEdgeStyle;curved=1;rounded=0;orthogonalLoop=1;jettySize=auto;html=1;entryX=0;entryY=0.5;entryDx=0;entryDy=0;" parent="1" source="Xm17Ci6VOuXUE4DC-9qw-1" target="TgrR3PMiWVgX_3PpwUvV-14" edge="1">
          <mxGeometry relative="1" as="geometry">
            <mxPoint x="180" y="215" as="targetPoint" />
          </mxGeometry>
        </mxCell>
        <mxCell id="Xm17Ci6VOuXUE4DC-9qw-1" value="sockets" style="rounded=1;whiteSpace=wrap;html=1;fillColor=#dae8fc;strokeColor=#6c8ebf;shadow=1;fontFamily=Verdana;" parent="1" vertex="1">
          <mxGeometry x="10" y="240" width="80" height="30" as="geometry" />
        </mxCell>
        <mxCell id="Xm17Ci6VOuXUE4DC-9qw-7" style="edgeStyle=orthogonalEdgeStyle;curved=1;rounded=0;orthogonalLoop=1;jettySize=auto;html=1;entryX=0;entryY=0.5;entryDx=0;entryDy=0;" parent="1" source="Xm17Ci6VOuXUE4DC-9qw-2" target="TgrR3PMiWVgX_3PpwUvV-16" edge="1">
          <mxGeometry relative="1" as="geometry">
            <mxPoint x="180" y="222.5" as="targetPoint" />
          </mxGeometry>
        </mxCell>
        <mxCell id="Xm17Ci6VOuXUE4DC-9qw-2" value="files" style="rounded=1;whiteSpace=wrap;html=1;fillColor=#dae8fc;strokeColor=#6c8ebf;shadow=1;fontFamily=Verdana;" parent="1" vertex="1">
          <mxGeometry x="10" y="280" width="80" height="30" as="geometry" />
        </mxCell>
        <mxCell id="TgrR3PMiWVgX_3PpwUvV-26" style="edgeStyle=orthogonalEdgeStyle;curved=1;rounded=0;orthogonalLoop=1;jettySize=auto;html=1;entryX=0.91;entryY=-0.005;entryDx=0;entryDy=0;entryPerimeter=0;strokeWidth=1;fontFamily=Verdana;exitX=1;exitY=0.5;exitDx=0;exitDy=0;" parent="1" source="Xm17Ci6VOuXUE4DC-9qw-3" target="Xm17Ci6VOuXUE4DC-9qw-10" edge="1">
          <mxGeometry relative="1" as="geometry">
            <Array as="points">
              <mxPoint x="494" y="255" />
            </Array>
          </mxGeometry>
        </mxCell>
        <mxCell id="Xm17Ci6VOuXUE4DC-9qw-3" value="Auditor" style="rounded=1;whiteSpace=wrap;html=1;fillColor=#d5e8d4;strokeColor=#82b366;shadow=1;fontFamily=Verdana;" parent="1" vertex="1">
          <mxGeometry x="370" y="240" width="80" height="30" as="geometry" />
        </mxCell>
        <mxCell id="Xm17Ci6VOuXUE4DC-9qw-9" style="edgeStyle=orthogonalEdgeStyle;curved=1;rounded=0;orthogonalLoop=1;jettySize=auto;html=1;entryX=0;entryY=0.5;entryDx=0;entryDy=0;" parent="1" source="Xm17Ci6VOuXUE4DC-9qw-4" target="Xm17Ci6VOuXUE4DC-9qw-3" edge="1">
          <mxGeometry relative="1" as="geometry" />
        </mxCell>
        <mxCell id="Xm17Ci6VOuXUE4DC-9qw-4" value="Input queue" style="rounded=1;whiteSpace=wrap;html=1;fillColor=#d5e8d4;strokeColor=#82b366;shadow=1;fontFamily=Verdana;" parent="1" vertex="1">
          <mxGeometry x="261" y="240" width="80" height="30" as="geometry" />
        </mxCell>
        <mxCell id="Xm17Ci6VOuXUE4DC-9qw-10" value="" style="rounded=0;whiteSpace=wrap;html=1;shadow=1;" parent="1" vertex="1">
          <mxGeometry x="232" y="339" width="288" height="200" as="geometry" />
        </mxCell>
        <mxCell id="Xm17Ci6VOuXUE4DC-9qw-15" value="Embedded Fluxtion processor" style="text;html=1;strokeColor=none;fillColor=none;align=center;verticalAlign=middle;whiteSpace=wrap;rounded=0;shadow=0;glass=0;dashed=1;sketch=0;fontFamily=Verdana;" parent="1" vertex="1">
          <mxGeometry x="232" y="339" width="198" height="20" as="geometry" />
        </mxCell>
        <mxCell id="Xm17Ci6VOuXUE4DC-9qw-30" style="edgeStyle=orthogonalEdgeStyle;curved=1;rounded=0;orthogonalLoop=1;jettySize=auto;html=1;entryX=0;entryY=0.25;entryDx=0;entryDy=0;" parent="1" source="Xm17Ci6VOuXUE4DC-9qw-16" target="Xm17Ci6VOuXUE4DC-9qw-21" edge="1">
          <mxGeometry relative="1" as="geometry" />
        </mxCell>
        <mxCell id="Xm17Ci6VOuXUE4DC-9qw-16" value="queries" style="rounded=1;whiteSpace=wrap;html=1;fillColor=#d5e8d4;strokeColor=#82b366;shadow=1;fontFamily=Verdana;" parent="1" vertex="1">
          <mxGeometry x="262" y="379" width="80" height="30" as="geometry" />
        </mxCell>
        <mxCell id="Xm17Ci6VOuXUE4DC-9qw-22" style="edgeStyle=orthogonalEdgeStyle;curved=1;rounded=0;orthogonalLoop=1;jettySize=auto;html=1;entryX=0;entryY=0.75;entryDx=0;entryDy=0;" parent="1" source="Xm17Ci6VOuXUE4DC-9qw-18" target="Xm17Ci6VOuXUE4DC-9qw-21" edge="1">
          <mxGeometry relative="1" as="geometry" />
        </mxCell>
        <mxCell id="Xm17Ci6VOuXUE4DC-9qw-18" value="windows" style="rounded=1;whiteSpace=wrap;html=1;fillColor=#d5e8d4;strokeColor=#82b366;shadow=1;fontFamily=Verdana;" parent="1" vertex="1">
          <mxGeometry x="262" y="479" width="80" height="30" as="geometry" />
        </mxCell>
        <mxCell id="Xm17Ci6VOuXUE4DC-9qw-25" style="edgeStyle=orthogonalEdgeStyle;curved=1;rounded=0;orthogonalLoop=1;jettySize=auto;html=1;entryX=1;entryY=0.25;entryDx=0;entryDy=0;" parent="1" source="Xm17Ci6VOuXUE4DC-9qw-19" target="Xm17Ci6VOuXUE4DC-9qw-21" edge="1">
          <mxGeometry relative="1" as="geometry" />
        </mxCell>
        <mxCell id="Xm17Ci6VOuXUE4DC-9qw-19" value="aggregates" style="rounded=1;whiteSpace=wrap;html=1;fillColor=#d5e8d4;strokeColor=#82b366;shadow=1;fontFamily=Verdana;" parent="1" vertex="1">
          <mxGeometry x="407" y="379" width="80" height="30" as="geometry" />
        </mxCell>
        <mxCell id="Xm17Ci6VOuXUE4DC-9qw-29" style="edgeStyle=orthogonalEdgeStyle;curved=1;rounded=0;orthogonalLoop=1;jettySize=auto;html=1;entryX=1;entryY=0.75;entryDx=0;entryDy=0;" parent="1" source="Xm17Ci6VOuXUE4DC-9qw-20" target="Xm17Ci6VOuXUE4DC-9qw-21" edge="1">
          <mxGeometry relative="1" as="geometry" />
        </mxCell>
        <mxCell id="Xm17Ci6VOuXUE4DC-9qw-20" value="user functions" style="rounded=1;whiteSpace=wrap;html=1;fillColor=#d5e8d4;strokeColor=#82b366;shadow=1;fontFamily=Verdana;" parent="1" vertex="1">
          <mxGeometry x="407" y="479" width="80" height="30" as="geometry" />
        </mxCell>
        <mxCell id="Xm17Ci6VOuXUE4DC-9qw-24" style="edgeStyle=orthogonalEdgeStyle;curved=1;rounded=0;orthogonalLoop=1;jettySize=auto;html=1;entryX=0;entryY=0.5;entryDx=0;entryDy=0;" parent="1" source="Xm17Ci6VOuXUE4DC-9qw-21" target="Xm17Ci6VOuXUE4DC-9qw-19" edge="1">
          <mxGeometry relative="1" as="geometry">
            <Array as="points">
              <mxPoint x="382" y="394" />
            </Array>
          </mxGeometry>
        </mxCell>
        <mxCell id="Xm17Ci6VOuXUE4DC-9qw-26" style="edgeStyle=orthogonalEdgeStyle;curved=1;rounded=0;orthogonalLoop=1;jettySize=auto;html=1;entryX=1;entryY=0.5;entryDx=0;entryDy=0;" parent="1" source="Xm17Ci6VOuXUE4DC-9qw-21" target="Xm17Ci6VOuXUE4DC-9qw-16" edge="1">
          <mxGeometry relative="1" as="geometry">
            <Array as="points">
              <mxPoint x="372" y="394" />
            </Array>
          </mxGeometry>
        </mxCell>
        <mxCell id="Xm17Ci6VOuXUE4DC-9qw-27" style="edgeStyle=orthogonalEdgeStyle;curved=1;rounded=0;orthogonalLoop=1;jettySize=auto;html=1;entryX=0;entryY=0.5;entryDx=0;entryDy=0;" parent="1" source="Xm17Ci6VOuXUE4DC-9qw-21" target="Xm17Ci6VOuXUE4DC-9qw-20" edge="1">
          <mxGeometry relative="1" as="geometry" />
        </mxCell>
        <mxCell id="Xm17Ci6VOuXUE4DC-9qw-28" style="edgeStyle=orthogonalEdgeStyle;curved=1;rounded=0;orthogonalLoop=1;jettySize=auto;html=1;entryX=1;entryY=0.5;entryDx=0;entryDy=0;" parent="1" source="Xm17Ci6VOuXUE4DC-9qw-21" target="Xm17Ci6VOuXUE4DC-9qw-18" edge="1">
          <mxGeometry relative="1" as="geometry">
            <Array as="points">
              <mxPoint x="372" y="494" />
            </Array>
          </mxGeometry>
        </mxCell>
        <mxCell id="Xm17Ci6VOuXUE4DC-9qw-21" value="event dispatcher" style="rounded=1;whiteSpace=wrap;html=1;fillColor=#f8cecc;strokeColor=#b85450;shadow=1;fontFamily=Verdana;" parent="1" vertex="1">
          <mxGeometry x="337" y="429" width="80" height="30" as="geometry" />
        </mxCell>
        <mxCell id="Xm17Ci6VOuXUE4DC-9qw-40" style="edgeStyle=orthogonalEdgeStyle;curved=1;rounded=0;orthogonalLoop=1;jettySize=auto;html=1;exitX=0.157;exitY=0.995;exitDx=0;exitDy=0;entryX=0;entryY=0.5;entryDx=0;entryDy=0;sketch=0;exitPerimeter=0;" parent="1" source="Xm17Ci6VOuXUE4DC-9qw-10" target="Xm17Ci6VOuXUE4DC-9qw-31" edge="1">
          <mxGeometry relative="1" as="geometry" />
        </mxCell>
        <mxCell id="Xm17Ci6VOuXUE4DC-9qw-41" style="edgeStyle=orthogonalEdgeStyle;curved=1;rounded=0;sketch=0;orthogonalLoop=1;jettySize=auto;html=1;entryX=0;entryY=0.5;entryDx=0;entryDy=0;" parent="1" source="Xm17Ci6VOuXUE4DC-9qw-31" target="Xm17Ci6VOuXUE4DC-9qw-32" edge="1">
          <mxGeometry relative="1" as="geometry" />
        </mxCell>
        <mxCell id="Xm17Ci6VOuXUE4DC-9qw-31" value="Output queue" style="rounded=1;whiteSpace=wrap;html=1;fillColor=#d5e8d4;strokeColor=#82b366;shadow=1;fontFamily=Verdana;" parent="1" vertex="1">
          <mxGeometry x="342" y="609" width="80" height="30" as="geometry" />
        </mxCell>
        <mxCell id="Xm17Ci6VOuXUE4DC-9qw-47" style="edgeStyle=orthogonalEdgeStyle;curved=1;rounded=0;sketch=0;orthogonalLoop=1;jettySize=auto;html=1;entryX=0;entryY=0.5;entryDx=0;entryDy=0;" parent="1" source="Xm17Ci6VOuXUE4DC-9qw-32" target="Xm17Ci6VOuXUE4DC-9qw-34" edge="1">
          <mxGeometry relative="1" as="geometry" />
        </mxCell>
        <mxCell id="Xm17Ci6VOuXUE4DC-9qw-53" style="edgeStyle=orthogonalEdgeStyle;curved=1;rounded=0;sketch=0;orthogonalLoop=1;jettySize=auto;html=1;entryX=0;entryY=0.25;entryDx=0;entryDy=0;" parent="1" source="Xm17Ci6VOuXUE4DC-9qw-32" target="Xm17Ci6VOuXUE4DC-9qw-35" edge="1">
          <mxGeometry relative="1" as="geometry" />
        </mxCell>
        <mxCell id="Xm17Ci6VOuXUE4DC-9qw-54" style="edgeStyle=orthogonalEdgeStyle;curved=1;rounded=0;sketch=0;orthogonalLoop=1;jettySize=auto;html=1;entryX=0;entryY=0.5;entryDx=0;entryDy=0;" parent="1" source="Xm17Ci6VOuXUE4DC-9qw-32" target="Xm17Ci6VOuXUE4DC-9qw-36" edge="1">
          <mxGeometry relative="1" as="geometry" />
        </mxCell>
        <mxCell id="Xm17Ci6VOuXUE4DC-9qw-32" value="auditor" style="rounded=1;whiteSpace=wrap;html=1;fillColor=#d5e8d4;strokeColor=#82b366;shadow=1;fontFamily=Verdana;" parent="1" vertex="1">
          <mxGeometry x="442" y="609" width="80" height="30" as="geometry" />
        </mxCell>
        <mxCell id="Xm17Ci6VOuXUE4DC-9qw-57" style="edgeStyle=orthogonalEdgeStyle;curved=1;rounded=0;sketch=0;orthogonalLoop=1;jettySize=auto;html=1;entryX=0;entryY=0.5;entryDx=0;entryDy=0;" parent="1" source="Xm17Ci6VOuXUE4DC-9qw-34" target="Xm17Ci6VOuXUE4DC-9qw-49" edge="1">
          <mxGeometry relative="1" as="geometry" />
        </mxCell>
        <mxCell id="Xm17Ci6VOuXUE4DC-9qw-34" value="sink" style="rounded=1;whiteSpace=wrap;html=1;fillColor=#d5e8d4;strokeColor=#82b366;shadow=1;fontFamily=Verdana;" parent="1" vertex="1">
          <mxGeometry x="562" y="609" width="80" height="30" as="geometry" />
        </mxCell>
        <mxCell id="Xm17Ci6VOuXUE4DC-9qw-55" style="edgeStyle=orthogonalEdgeStyle;curved=1;rounded=0;sketch=0;orthogonalLoop=1;jettySize=auto;html=1;entryX=0;entryY=0.5;entryDx=0;entryDy=0;" parent="1" source="Xm17Ci6VOuXUE4DC-9qw-35" target="Xm17Ci6VOuXUE4DC-9qw-48" edge="1">
          <mxGeometry relative="1" as="geometry" />
        </mxCell>
        <mxCell id="Xm17Ci6VOuXUE4DC-9qw-35" value="sink" style="rounded=1;whiteSpace=wrap;html=1;fillColor=#d5e8d4;strokeColor=#82b366;shadow=1;fontFamily=Verdana;" parent="1" vertex="1">
          <mxGeometry x="562" y="569" width="80" height="30" as="geometry" />
        </mxCell>
        <mxCell id="Xm17Ci6VOuXUE4DC-9qw-56" style="edgeStyle=orthogonalEdgeStyle;curved=1;rounded=0;sketch=0;orthogonalLoop=1;jettySize=auto;html=1;" parent="1" source="Xm17Ci6VOuXUE4DC-9qw-36" target="Xm17Ci6VOuXUE4DC-9qw-50" edge="1">
          <mxGeometry relative="1" as="geometry" />
        </mxCell>
        <mxCell id="Xm17Ci6VOuXUE4DC-9qw-36" value="sink" style="rounded=1;whiteSpace=wrap;html=1;fillColor=#d5e8d4;strokeColor=#82b366;shadow=1;fontFamily=Verdana;" parent="1" vertex="1">
          <mxGeometry x="562" y="649" width="80" height="30" as="geometry" />
        </mxCell>
        <mxCell id="Xm17Ci6VOuXUE4DC-9qw-48" value="kafka" style="rounded=1;whiteSpace=wrap;html=1;fillColor=#dae8fc;strokeColor=#6c8ebf;shadow=1;fontFamily=Verdana;" parent="1" vertex="1">
          <mxGeometry x="710" y="569" width="80" height="30" as="geometry" />
        </mxCell>
        <mxCell id="Xm17Ci6VOuXUE4DC-9qw-49" value="sockets" style="rounded=1;whiteSpace=wrap;html=1;fillColor=#dae8fc;strokeColor=#6c8ebf;shadow=1;fontFamily=Verdana;" parent="1" vertex="1">
          <mxGeometry x="710" y="609" width="80" height="30" as="geometry" />
        </mxCell>
        <mxCell id="Xm17Ci6VOuXUE4DC-9qw-50" value="files" style="rounded=1;whiteSpace=wrap;html=1;fillColor=#dae8fc;strokeColor=#6c8ebf;shadow=1;fontFamily=Verdana;" parent="1" vertex="1">
          <mxGeometry x="710" y="649" width="80" height="30" as="geometry" />
        </mxCell>
        <mxCell id="Xm17Ci6VOuXUE4DC-9qw-59" style="edgeStyle=orthogonalEdgeStyle;curved=1;rounded=0;sketch=0;orthogonalLoop=1;jettySize=auto;html=1;entryX=1;entryY=0.5;entryDx=0;entryDy=0;exitX=0;exitY=0.5;exitDx=0;exitDy=0;exitPerimeter=0;startArrow=blockThin;startFill=1;" parent="1" source="Xm17Ci6VOuXUE4DC-9qw-58" target="Xm17Ci6VOuXUE4DC-9qw-21" edge="1">
          <mxGeometry relative="1" as="geometry" />
        </mxCell>
        <mxCell id="TgrR3PMiWVgX_3PpwUvV-8" value="Input pipeline" style="text;html=1;strokeColor=none;fillColor=none;align=center;verticalAlign=middle;whiteSpace=wrap;rounded=0;fontFamily=Verdana;" parent="1" vertex="1">
          <mxGeometry x="577" y="285" width="95" height="20" as="geometry" />
        </mxCell>
        <mxCell id="TgrR3PMiWVgX_3PpwUvV-12" value="Output pipeline" style="text;html=1;strokeColor=none;fillColor=none;align=center;verticalAlign=middle;whiteSpace=wrap;rounded=0;fontFamily=Verdana;" parent="1" vertex="1">
          <mxGeometry x="129" y="574" width="100" height="20" as="geometry" />
        </mxCell>
        <mxCell id="TgrR3PMiWVgX_3PpwUvV-13" value="" style="endArrow=none;dashed=1;html=1;strokeWidth=1;" parent="1" edge="1">
          <mxGeometry width="50" height="50" relative="1" as="geometry">
            <mxPoint x="120" y="690" as="sourcePoint" />
            <mxPoint x="678" y="690" as="targetPoint" />
          </mxGeometry>
        </mxCell>
        <mxCell id="TgrR3PMiWVgX_3PpwUvV-23" value="" style="edgeStyle=orthogonalEdgeStyle;rounded=0;orthogonalLoop=1;jettySize=auto;html=1;strokeWidth=1;fontFamily=Verdana;" parent="1" source="TgrR3PMiWVgX_3PpwUvV-14" target="Xm17Ci6VOuXUE4DC-9qw-4" edge="1">
          <mxGeometry relative="1" as="geometry" />
        </mxCell>
        <mxCell id="TgrR3PMiWVgX_3PpwUvV-14" value="handler" style="rounded=1;whiteSpace=wrap;html=1;fillColor=#d5e8d4;strokeColor=#82b366;shadow=1;fontFamily=Verdana;" parent="1" vertex="1">
          <mxGeometry x="149" y="240" width="80" height="30" as="geometry" />
        </mxCell>
        <mxCell id="TgrR3PMiWVgX_3PpwUvV-27" style="edgeStyle=orthogonalEdgeStyle;curved=1;rounded=0;orthogonalLoop=1;jettySize=auto;html=1;entryX=0;entryY=0.25;entryDx=0;entryDy=0;strokeWidth=1;fontFamily=Verdana;" parent="1" source="TgrR3PMiWVgX_3PpwUvV-15" target="Xm17Ci6VOuXUE4DC-9qw-4" edge="1">
          <mxGeometry relative="1" as="geometry" />
        </mxCell>
        <mxCell id="TgrR3PMiWVgX_3PpwUvV-15" value="handler" style="rounded=1;whiteSpace=wrap;html=1;fillColor=#d5e8d4;strokeColor=#82b366;shadow=1;fontFamily=Verdana;" parent="1" vertex="1">
          <mxGeometry x="149" y="200" width="80" height="30" as="geometry" />
        </mxCell>
        <mxCell id="TgrR3PMiWVgX_3PpwUvV-28" style="edgeStyle=orthogonalEdgeStyle;curved=1;rounded=0;orthogonalLoop=1;jettySize=auto;html=1;entryX=0;entryY=0.75;entryDx=0;entryDy=0;strokeWidth=1;fontFamily=Verdana;" parent="1" source="TgrR3PMiWVgX_3PpwUvV-16" target="Xm17Ci6VOuXUE4DC-9qw-4" edge="1">
          <mxGeometry relative="1" as="geometry" />
        </mxCell>
        <mxCell id="TgrR3PMiWVgX_3PpwUvV-16" value="handler" style="rounded=1;whiteSpace=wrap;html=1;fillColor=#d5e8d4;strokeColor=#82b366;shadow=1;fontFamily=Verdana;" parent="1" vertex="1">
          <mxGeometry x="149" y="280" width="80" height="30" as="geometry" />
        </mxCell>
        <mxCell id="TgrR3PMiWVgX_3PpwUvV-18" value="" style="endArrow=none;dashed=1;html=1;strokeWidth=1;entryX=0.998;entryY=0.268;entryDx=0;entryDy=0;entryPerimeter=0;" parent="1" target="KQn6Uf30BCrk-3s5nFrq-4" edge="1">
          <mxGeometry width="50" height="50" relative="1" as="geometry">
            <mxPoint x="120" y="320" as="sourcePoint" />
            <mxPoint x="640" y="320" as="targetPoint" />
          </mxGeometry>
        </mxCell>
        <mxCell id="TgrR3PMiWVgX_3PpwUvV-19" value="" style="rounded=1;whiteSpace=wrap;html=1;fillColor=#dae8fc;strokeColor=#6c8ebf;shadow=1;fontFamily=Verdana;" parent="1" vertex="1">
          <mxGeometry x="577" y="470" width="80" height="30" as="geometry" />
        </mxCell>
        <mxCell id="TgrR3PMiWVgX_3PpwUvV-20" value="" style="rounded=1;whiteSpace=wrap;html=1;fillColor=#dae8fc;strokeColor=#6c8ebf;shadow=1;fontFamily=Verdana;" parent="1" vertex="1">
          <mxGeometry x="569.5" y="449" width="80" height="30" as="geometry" />
        </mxCell>
        <mxCell id="Xm17Ci6VOuXUE4DC-9qw-58" value="app classes" style="rounded=1;whiteSpace=wrap;html=1;fillColor=#dae8fc;strokeColor=#6c8ebf;shadow=1;fontFamily=Verdana;" parent="1" vertex="1">
          <mxGeometry x="562" y="429" width="80" height="30" as="geometry" />
        </mxCell>
        <mxCell id="TgrR3PMiWVgX_3PpwUvV-25" value="" style="endArrow=none;dashed=1;html=1;strokeWidth=1;entryX=0.998;entryY=0.268;entryDx=0;entryDy=0;entryPerimeter=0;" parent="1" edge="1">
          <mxGeometry width="50" height="50" relative="1" as="geometry">
            <mxPoint x="120" y="559" as="sourcePoint" />
            <mxPoint x="678.8800000000001" y="561.04" as="targetPoint" />
          </mxGeometry>
        </mxCell>
      </root>
    </mxGraphModel>
  </diagram>
  <diagram id="GIJNgIrCPQ2GT7klDJ1Q" name="generating">
    <mxGraphModel dx="1169" dy="633" grid="1" gridSize="10" guides="1" tooltips="1" connect="1" arrows="1" fold="1" page="1" pageScale="1" pageWidth="827" pageHeight="1169" math="0" shadow="0">
      <root>
        <mxCell id="0" />
        <mxCell id="1" parent="0" />
        <mxCell id="i6aoMwvE08oNlLVnmS6U-14" style="edgeStyle=orthogonalEdgeStyle;rounded=0;orthogonalLoop=1;jettySize=auto;html=1;entryX=0.5;entryY=0;entryDx=0;entryDy=0;" edge="1" parent="1" source="i6aoMwvE08oNlLVnmS6U-1" target="i6aoMwvE08oNlLVnmS6U-6">
          <mxGeometry relative="1" as="geometry" />
        </mxCell>
        <mxCell id="i6aoMwvE08oNlLVnmS6U-1" value="Spring config" style="rounded=1;whiteSpace=wrap;html=1;fillColor=#dae8fc;strokeColor=#6c8ebf;shadow=1;fontFamily=Verdana;" vertex="1" parent="1">
          <mxGeometry x="20" y="90" width="100" height="30" as="geometry" />
        </mxCell>
        <mxCell id="i6aoMwvE08oNlLVnmS6U-17" style="edgeStyle=orthogonalEdgeStyle;rounded=0;orthogonalLoop=1;jettySize=auto;html=1;entryX=0;entryY=0;entryDx=0;entryDy=0;" edge="1" parent="1" source="i6aoMwvE08oNlLVnmS6U-2" target="i6aoMwvE08oNlLVnmS6U-6">
          <mxGeometry relative="1" as="geometry">
            <Array as="points">
              <mxPoint x="170" y="160" />
            </Array>
          </mxGeometry>
        </mxCell>
        <mxCell id="i6aoMwvE08oNlLVnmS6U-2" value="yaml config" style="rounded=1;whiteSpace=wrap;html=1;fillColor=#dae8fc;strokeColor=#6c8ebf;shadow=1;fontFamily=Verdana;" vertex="1" parent="1">
          <mxGeometry x="20" y="150" width="100" height="30" as="geometry" />
        </mxCell>
        <mxCell id="i6aoMwvE08oNlLVnmS6U-16" style="edgeStyle=orthogonalEdgeStyle;rounded=0;orthogonalLoop=1;jettySize=auto;html=1;entryX=0;entryY=1;entryDx=0;entryDy=0;" edge="1" parent="1" source="i6aoMwvE08oNlLVnmS6U-4" target="i6aoMwvE08oNlLVnmS6U-6">
          <mxGeometry relative="1" as="geometry" />
        </mxCell>
        <mxCell id="i6aoMwvE08oNlLVnmS6U-4" value="imperative" style="rounded=1;whiteSpace=wrap;html=1;fillColor=#dae8fc;strokeColor=#6c8ebf;shadow=1;fontFamily=Verdana;" vertex="1" parent="1">
          <mxGeometry x="20" y="220" width="100" height="30" as="geometry" />
        </mxCell>
        <mxCell id="i6aoMwvE08oNlLVnmS6U-18" style="edgeStyle=orthogonalEdgeStyle;rounded=0;orthogonalLoop=1;jettySize=auto;html=1;entryX=0.5;entryY=1;entryDx=0;entryDy=0;" edge="1" parent="1" source="i6aoMwvE08oNlLVnmS6U-5" target="i6aoMwvE08oNlLVnmS6U-6">
          <mxGeometry relative="1" as="geometry" />
        </mxCell>
        <mxCell id="i6aoMwvE08oNlLVnmS6U-5" value="functional" style="rounded=1;whiteSpace=wrap;html=1;fillColor=#dae8fc;strokeColor=#6c8ebf;shadow=1;fontFamily=Verdana;" vertex="1" parent="1">
          <mxGeometry x="20" y="280" width="100" height="30" as="geometry" />
        </mxCell>
        <mxCell id="i6aoMwvE08oNlLVnmS6U-19" style="edgeStyle=orthogonalEdgeStyle;rounded=0;orthogonalLoop=1;jettySize=auto;html=1;entryX=0;entryY=0.5;entryDx=0;entryDy=0;" edge="1" parent="1" source="i6aoMwvE08oNlLVnmS6U-6" target="i6aoMwvE08oNlLVnmS6U-7">
          <mxGeometry relative="1" as="geometry" />
        </mxCell>
        <mxCell id="i6aoMwvE08oNlLVnmS6U-6" value="Processor config" style="rounded=1;whiteSpace=wrap;html=1;fillColor=#d5e8d4;strokeColor=#82b366;shadow=1;fontFamily=Verdana;" vertex="1" parent="1">
          <mxGeometry x="170" y="180" width="110" height="30" as="geometry" />
        </mxCell>
        <mxCell id="i6aoMwvE08oNlLVnmS6U-25" style="edgeStyle=orthogonalEdgeStyle;rounded=0;orthogonalLoop=1;jettySize=auto;html=1;entryX=0;entryY=0.5;entryDx=0;entryDy=0;" edge="1" parent="1" source="i6aoMwvE08oNlLVnmS6U-7" target="i6aoMwvE08oNlLVnmS6U-9">
          <mxGeometry relative="1" as="geometry">
            <Array as="points">
              <mxPoint x="380" y="255" />
            </Array>
          </mxGeometry>
        </mxCell>
        <mxCell id="i6aoMwvE08oNlLVnmS6U-26" style="edgeStyle=orthogonalEdgeStyle;rounded=0;orthogonalLoop=1;jettySize=auto;html=1;entryX=0;entryY=0.5;entryDx=0;entryDy=0;" edge="1" parent="1" source="i6aoMwvE08oNlLVnmS6U-7" target="i6aoMwvE08oNlLVnmS6U-12">
          <mxGeometry relative="1" as="geometry">
            <Array as="points">
              <mxPoint x="380" y="135" />
            </Array>
          </mxGeometry>
        </mxCell>
        <mxCell id="i6aoMwvE08oNlLVnmS6U-27" style="edgeStyle=orthogonalEdgeStyle;rounded=0;orthogonalLoop=1;jettySize=auto;html=1;entryX=0;entryY=0.5;entryDx=0;entryDy=0;" edge="1" parent="1" source="i6aoMwvE08oNlLVnmS6U-7" target="i6aoMwvE08oNlLVnmS6U-11">
          <mxGeometry relative="1" as="geometry" />
        </mxCell>
        <mxCell id="i6aoMwvE08oNlLVnmS6U-7" value="code model" style="rounded=1;whiteSpace=wrap;html=1;fillColor=#d5e8d4;strokeColor=#82b366;shadow=1;fontFamily=Verdana;" vertex="1" parent="1">
          <mxGeometry x="330" y="180" width="100" height="30" as="geometry" />
        </mxCell>
        <mxCell id="i6aoMwvE08oNlLVnmS6U-9" value="interpreted" style="rounded=1;whiteSpace=wrap;html=1;fillColor=#d5e8d4;strokeColor=#82b366;shadow=1;fontFamily=Verdana;" vertex="1" parent="1">
          <mxGeometry x="488" y="240" width="100" height="30" as="geometry" />
        </mxCell>
        <mxCell id="i6aoMwvE08oNlLVnmS6U-10" value="java source" style="rounded=1;whiteSpace=wrap;html=1;fillColor=#dae8fc;strokeColor=#6c8ebf;shadow=1;fontFamily=Verdana;" vertex="1" parent="1">
          <mxGeometry x="688" y="180" width="100" height="30" as="geometry" />
        </mxCell>
        <mxCell id="i6aoMwvE08oNlLVnmS6U-29" value="" style="edgeStyle=orthogonalEdgeStyle;rounded=0;orthogonalLoop=1;jettySize=auto;html=1;" edge="1" parent="1" source="i6aoMwvE08oNlLVnmS6U-11" target="i6aoMwvE08oNlLVnmS6U-10">
          <mxGeometry relative="1" as="geometry" />
        </mxCell>
        <mxCell id="i6aoMwvE08oNlLVnmS6U-11" value="AOT java" style="rounded=1;whiteSpace=wrap;html=1;fillColor=#d5e8d4;strokeColor=#82b366;shadow=1;fontFamily=Verdana;" vertex="1" parent="1">
          <mxGeometry x="488" y="180" width="100" height="30" as="geometry" />
        </mxCell>
        <mxCell id="i6aoMwvE08oNlLVnmS6U-28" value="" style="edgeStyle=orthogonalEdgeStyle;rounded=0;orthogonalLoop=1;jettySize=auto;html=1;" edge="1" parent="1" source="i6aoMwvE08oNlLVnmS6U-12" target="i6aoMwvE08oNlLVnmS6U-13">
          <mxGeometry relative="1" as="geometry" />
        </mxCell>
        <mxCell id="i6aoMwvE08oNlLVnmS6U-12" value="AOT target" style="rounded=1;whiteSpace=wrap;html=1;fillColor=#d5e8d4;strokeColor=#82b366;shadow=1;fontFamily=Verdana;" vertex="1" parent="1">
          <mxGeometry x="488" y="120" width="100" height="30" as="geometry" />
        </mxCell>
        <mxCell id="i6aoMwvE08oNlLVnmS6U-13" value="target source" style="rounded=1;whiteSpace=wrap;html=1;fillColor=#dae8fc;strokeColor=#6c8ebf;shadow=1;fontFamily=Verdana;" vertex="1" parent="1">
          <mxGeometry x="688" y="120" width="100" height="30" as="geometry" />
        </mxCell>
        <mxCell id="i6aoMwvE08oNlLVnmS6U-30" value="Compiler scope" style="text;strokeColor=none;fillColor=none;html=1;fontSize=24;fontStyle=1;verticalAlign=middle;align=center;" vertex="1" parent="1">
          <mxGeometry x="250" y="20" width="100" height="40" as="geometry" />
        </mxCell>
        <mxCell id="i6aoMwvE08oNlLVnmS6U-31" value="Runtime scope" style="text;strokeColor=none;fillColor=none;html=1;fontSize=24;fontStyle=1;verticalAlign=middle;align=center;" vertex="1" parent="1">
          <mxGeometry x="688" y="20" width="100" height="40" as="geometry" />
        </mxCell>
        <mxCell id="i6aoMwvE08oNlLVnmS6U-33" value="" style="endArrow=none;dashed=1;html=1;rounded=0;" edge="1" parent="1">
          <mxGeometry width="50" height="50" relative="1" as="geometry">
            <mxPoint x="620" y="360" as="sourcePoint" />
            <mxPoint x="620" as="targetPoint" />
          </mxGeometry>
        </mxCell>
      </root>
    </mxGraphModel>
  </diagram>
  <diagram name="binding_generating" id="CMwPH33WDcVwDVo00K_H">
    <mxGraphModel dx="1754" dy="950" grid="1" gridSize="10" guides="1" tooltips="1" connect="1" arrows="1" fold="1" page="1" pageScale="1" pageWidth="827" pageHeight="1169" math="0" shadow="0">
      <root>
        <mxCell id="7jAwMrCZWFi8210POXa--0" />
        <mxCell id="7jAwMrCZWFi8210POXa--1" parent="7jAwMrCZWFi8210POXa--0" />
        <mxCell id="7jAwMrCZWFi8210POXa--2" style="edgeStyle=orthogonalEdgeStyle;rounded=0;orthogonalLoop=1;jettySize=auto;html=1;entryX=0.5;entryY=0;entryDx=0;entryDy=0;" edge="1" parent="7jAwMrCZWFi8210POXa--1" source="7jAwMrCZWFi8210POXa--3" target="7jAwMrCZWFi8210POXa--11">
          <mxGeometry relative="1" as="geometry" />
        </mxCell>
        <mxCell id="7jAwMrCZWFi8210POXa--3" value="Spring config" style="rounded=1;whiteSpace=wrap;html=1;fillColor=#dae8fc;strokeColor=#6c8ebf;shadow=1;fontFamily=Verdana;" vertex="1" parent="7jAwMrCZWFi8210POXa--1">
          <mxGeometry x="20" y="90" width="100" height="30" as="geometry" />
        </mxCell>
        <mxCell id="7jAwMrCZWFi8210POXa--4" style="edgeStyle=orthogonalEdgeStyle;rounded=0;orthogonalLoop=1;jettySize=auto;html=1;entryX=0;entryY=0;entryDx=0;entryDy=0;" edge="1" parent="7jAwMrCZWFi8210POXa--1" source="7jAwMrCZWFi8210POXa--5" target="7jAwMrCZWFi8210POXa--11">
          <mxGeometry relative="1" as="geometry">
            <Array as="points">
              <mxPoint x="170" y="160" />
            </Array>
          </mxGeometry>
        </mxCell>
        <mxCell id="7jAwMrCZWFi8210POXa--5" value="yaml config" style="rounded=1;whiteSpace=wrap;html=1;fillColor=#dae8fc;strokeColor=#6c8ebf;shadow=1;fontFamily=Verdana;" vertex="1" parent="7jAwMrCZWFi8210POXa--1">
          <mxGeometry x="20" y="150" width="100" height="30" as="geometry" />
        </mxCell>
        <mxCell id="7jAwMrCZWFi8210POXa--6" style="edgeStyle=orthogonalEdgeStyle;rounded=0;orthogonalLoop=1;jettySize=auto;html=1;entryX=0;entryY=1;entryDx=0;entryDy=0;" edge="1" parent="7jAwMrCZWFi8210POXa--1" source="7jAwMrCZWFi8210POXa--7" target="7jAwMrCZWFi8210POXa--11">
          <mxGeometry relative="1" as="geometry" />
        </mxCell>
        <mxCell id="7jAwMrCZWFi8210POXa--7" value="imperative" style="rounded=1;whiteSpace=wrap;html=1;fillColor=#dae8fc;strokeColor=#6c8ebf;shadow=1;fontFamily=Verdana;" vertex="1" parent="7jAwMrCZWFi8210POXa--1">
          <mxGeometry x="20" y="220" width="100" height="30" as="geometry" />
        </mxCell>
        <mxCell id="7jAwMrCZWFi8210POXa--8" style="edgeStyle=orthogonalEdgeStyle;rounded=0;orthogonalLoop=1;jettySize=auto;html=1;entryX=0.5;entryY=1;entryDx=0;entryDy=0;" edge="1" parent="7jAwMrCZWFi8210POXa--1" source="7jAwMrCZWFi8210POXa--9" target="7jAwMrCZWFi8210POXa--11">
          <mxGeometry relative="1" as="geometry" />
        </mxCell>
        <mxCell id="7jAwMrCZWFi8210POXa--9" value="functional" style="rounded=1;whiteSpace=wrap;html=1;fillColor=#dae8fc;strokeColor=#6c8ebf;shadow=1;fontFamily=Verdana;" vertex="1" parent="7jAwMrCZWFi8210POXa--1">
          <mxGeometry x="20" y="280" width="100" height="30" as="geometry" />
        </mxCell>
        <mxCell id="7jAwMrCZWFi8210POXa--10" style="edgeStyle=orthogonalEdgeStyle;rounded=0;orthogonalLoop=1;jettySize=auto;html=1;entryX=0;entryY=0.5;entryDx=0;entryDy=0;" edge="1" parent="7jAwMrCZWFi8210POXa--1" source="7jAwMrCZWFi8210POXa--11" target="7jAwMrCZWFi8210POXa--15">
          <mxGeometry relative="1" as="geometry" />
        </mxCell>
        <mxCell id="7jAwMrCZWFi8210POXa--11" value="Processor config" style="rounded=1;whiteSpace=wrap;html=1;fillColor=#d5e8d4;strokeColor=#82b366;shadow=1;fontFamily=Verdana;" vertex="1" parent="7jAwMrCZWFi8210POXa--1">
          <mxGeometry x="170" y="180" width="110" height="30" as="geometry" />
        </mxCell>
        <mxCell id="7jAwMrCZWFi8210POXa--12" style="edgeStyle=orthogonalEdgeStyle;rounded=0;orthogonalLoop=1;jettySize=auto;html=1;entryX=0;entryY=0.5;entryDx=0;entryDy=0;" edge="1" parent="7jAwMrCZWFi8210POXa--1" source="7jAwMrCZWFi8210POXa--15" target="7jAwMrCZWFi8210POXa--16">
          <mxGeometry relative="1" as="geometry">
            <Array as="points">
              <mxPoint x="380" y="255" />
            </Array>
          </mxGeometry>
        </mxCell>
        <mxCell id="7jAwMrCZWFi8210POXa--13" style="edgeStyle=orthogonalEdgeStyle;rounded=0;orthogonalLoop=1;jettySize=auto;html=1;entryX=0;entryY=0.5;entryDx=0;entryDy=0;" edge="1" parent="7jAwMrCZWFi8210POXa--1" source="7jAwMrCZWFi8210POXa--15" target="7jAwMrCZWFi8210POXa--21">
          <mxGeometry relative="1" as="geometry">
            <Array as="points">
              <mxPoint x="380" y="135" />
            </Array>
          </mxGeometry>
        </mxCell>
        <mxCell id="7jAwMrCZWFi8210POXa--14" style="edgeStyle=orthogonalEdgeStyle;rounded=0;orthogonalLoop=1;jettySize=auto;html=1;entryX=0;entryY=0.5;entryDx=0;entryDy=0;" edge="1" parent="7jAwMrCZWFi8210POXa--1" source="7jAwMrCZWFi8210POXa--15" target="7jAwMrCZWFi8210POXa--19">
          <mxGeometry relative="1" as="geometry" />
        </mxCell>
        <mxCell id="7jAwMrCZWFi8210POXa--15" value="code model" style="rounded=1;whiteSpace=wrap;html=1;fillColor=#d5e8d4;strokeColor=#82b366;shadow=1;fontFamily=Verdana;" vertex="1" parent="7jAwMrCZWFi8210POXa--1">
          <mxGeometry x="330" y="180" width="100" height="30" as="geometry" />
        </mxCell>
        <mxCell id="7jAwMrCZWFi8210POXa--16" value="interpreted" style="rounded=1;whiteSpace=wrap;html=1;fillColor=#d5e8d4;strokeColor=#82b366;shadow=1;fontFamily=Verdana;" vertex="1" parent="7jAwMrCZWFi8210POXa--1">
          <mxGeometry x="488" y="240" width="100" height="30" as="geometry" />
        </mxCell>
        <mxCell id="7jAwMrCZWFi8210POXa--17" value="java source" style="rounded=1;whiteSpace=wrap;html=1;fillColor=#dae8fc;strokeColor=#6c8ebf;shadow=1;fontFamily=Verdana;" vertex="1" parent="7jAwMrCZWFi8210POXa--1">
          <mxGeometry x="688" y="180" width="100" height="30" as="geometry" />
        </mxCell>
        <mxCell id="7jAwMrCZWFi8210POXa--18" value="" style="edgeStyle=orthogonalEdgeStyle;rounded=0;orthogonalLoop=1;jettySize=auto;html=1;" edge="1" parent="7jAwMrCZWFi8210POXa--1" source="7jAwMrCZWFi8210POXa--19" target="7jAwMrCZWFi8210POXa--17">
          <mxGeometry relative="1" as="geometry" />
        </mxCell>
        <mxCell id="7jAwMrCZWFi8210POXa--19" value="AOT java" style="rounded=1;whiteSpace=wrap;html=1;fillColor=#d5e8d4;strokeColor=#82b366;shadow=1;fontFamily=Verdana;" vertex="1" parent="7jAwMrCZWFi8210POXa--1">
          <mxGeometry x="488" y="180" width="100" height="30" as="geometry" />
        </mxCell>
        <mxCell id="7jAwMrCZWFi8210POXa--20" value="" style="edgeStyle=orthogonalEdgeStyle;rounded=0;orthogonalLoop=1;jettySize=auto;html=1;" edge="1" parent="7jAwMrCZWFi8210POXa--1" source="7jAwMrCZWFi8210POXa--21" target="7jAwMrCZWFi8210POXa--22">
          <mxGeometry relative="1" as="geometry" />
        </mxCell>
        <mxCell id="7jAwMrCZWFi8210POXa--21" value="AOT target" style="rounded=1;whiteSpace=wrap;html=1;fillColor=#d5e8d4;strokeColor=#82b366;shadow=1;fontFamily=Verdana;" vertex="1" parent="7jAwMrCZWFi8210POXa--1">
          <mxGeometry x="488" y="120" width="100" height="30" as="geometry" />
        </mxCell>
        <mxCell id="7jAwMrCZWFi8210POXa--22" value="target source" style="rounded=1;whiteSpace=wrap;html=1;fillColor=#dae8fc;strokeColor=#6c8ebf;shadow=1;fontFamily=Verdana;" vertex="1" parent="7jAwMrCZWFi8210POXa--1">
          <mxGeometry x="688" y="120" width="100" height="30" as="geometry" />
        </mxCell>
        <mxCell id="7jAwMrCZWFi8210POXa--23" value="Binding classes" style="text;strokeColor=none;fillColor=none;html=1;fontSize=24;fontStyle=1;verticalAlign=middle;align=center;" vertex="1" parent="7jAwMrCZWFi8210POXa--1">
          <mxGeometry x="250" y="20" width="100" height="40" as="geometry" />
        </mxCell>
        <mxCell id="7jAwMrCZWFi8210POXa--24" value="Generating processor" style="text;strokeColor=none;fillColor=none;html=1;fontSize=24;fontStyle=1;verticalAlign=middle;align=center;" vertex="1" parent="7jAwMrCZWFi8210POXa--1">
          <mxGeometry x="600" y="20" width="100" height="40" as="geometry" />
        </mxCell>
        <mxCell id="7jAwMrCZWFi8210POXa--25" value="" style="endArrow=none;dashed=1;html=1;rounded=0;" edge="1" parent="7jAwMrCZWFi8210POXa--1">
          <mxGeometry width="50" height="50" relative="1" as="geometry">
            <mxPoint x="450" y="360" as="sourcePoint" />
            <mxPoint x="450" as="targetPoint" />
          </mxGeometry>
        </mxCell>
      </root>
    </mxGraphModel>
  </diagram>
  <diagram name="running" id="HLiwhR4Rmg_F8XyfmN0s">
    <mxGraphModel dx="1754" dy="950" grid="1" gridSize="10" guides="1" tooltips="1" connect="1" arrows="1" fold="1" page="1" pageScale="1" pageWidth="827" pageHeight="1169" math="0" shadow="0">
      <root>
        <mxCell id="BGl5naO4P5NcdGwBuhPD-0" />
        <mxCell id="BGl5naO4P5NcdGwBuhPD-1" parent="BGl5naO4P5NcdGwBuhPD-0" />
        <mxCell id="BGl5naO4P5NcdGwBuhPD-2" style="edgeStyle=orthogonalEdgeStyle;rounded=0;orthogonalLoop=1;jettySize=auto;html=1;entryX=0.5;entryY=0;entryDx=0;entryDy=0;" edge="1" parent="BGl5naO4P5NcdGwBuhPD-1" source="BGl5naO4P5NcdGwBuhPD-3" target="BGl5naO4P5NcdGwBuhPD-11">
          <mxGeometry relative="1" as="geometry" />
        </mxCell>
        <mxCell id="BGl5naO4P5NcdGwBuhPD-3" value="Spring config" style="rounded=1;whiteSpace=wrap;html=1;fillColor=#dae8fc;strokeColor=#6c8ebf;shadow=1;fontFamily=Verdana;" vertex="1" parent="BGl5naO4P5NcdGwBuhPD-1">
          <mxGeometry x="20" y="90" width="100" height="30" as="geometry" />
        </mxCell>
        <mxCell id="BGl5naO4P5NcdGwBuhPD-4" style="edgeStyle=orthogonalEdgeStyle;rounded=0;orthogonalLoop=1;jettySize=auto;html=1;entryX=0;entryY=0;entryDx=0;entryDy=0;" edge="1" parent="BGl5naO4P5NcdGwBuhPD-1" source="BGl5naO4P5NcdGwBuhPD-5" target="BGl5naO4P5NcdGwBuhPD-11">
          <mxGeometry relative="1" as="geometry">
            <Array as="points">
              <mxPoint x="170" y="160" />
            </Array>
          </mxGeometry>
        </mxCell>
        <mxCell id="BGl5naO4P5NcdGwBuhPD-5" value="yaml config" style="rounded=1;whiteSpace=wrap;html=1;fillColor=#dae8fc;strokeColor=#6c8ebf;shadow=1;fontFamily=Verdana;" vertex="1" parent="BGl5naO4P5NcdGwBuhPD-1">
          <mxGeometry x="20" y="150" width="100" height="30" as="geometry" />
        </mxCell>
        <mxCell id="BGl5naO4P5NcdGwBuhPD-6" style="edgeStyle=orthogonalEdgeStyle;rounded=0;orthogonalLoop=1;jettySize=auto;html=1;entryX=0;entryY=1;entryDx=0;entryDy=0;" edge="1" parent="BGl5naO4P5NcdGwBuhPD-1" source="BGl5naO4P5NcdGwBuhPD-7" target="BGl5naO4P5NcdGwBuhPD-11">
          <mxGeometry relative="1" as="geometry" />
        </mxCell>
        <mxCell id="BGl5naO4P5NcdGwBuhPD-7" value="imperative" style="rounded=1;whiteSpace=wrap;html=1;fillColor=#dae8fc;strokeColor=#6c8ebf;shadow=1;fontFamily=Verdana;" vertex="1" parent="BGl5naO4P5NcdGwBuhPD-1">
          <mxGeometry x="20" y="220" width="100" height="30" as="geometry" />
        </mxCell>
        <mxCell id="BGl5naO4P5NcdGwBuhPD-8" style="edgeStyle=orthogonalEdgeStyle;rounded=0;orthogonalLoop=1;jettySize=auto;html=1;entryX=0.5;entryY=1;entryDx=0;entryDy=0;" edge="1" parent="BGl5naO4P5NcdGwBuhPD-1" source="BGl5naO4P5NcdGwBuhPD-9" target="BGl5naO4P5NcdGwBuhPD-11">
          <mxGeometry relative="1" as="geometry" />
        </mxCell>
        <mxCell id="BGl5naO4P5NcdGwBuhPD-9" value="functional" style="rounded=1;whiteSpace=wrap;html=1;fillColor=#dae8fc;strokeColor=#6c8ebf;shadow=1;fontFamily=Verdana;" vertex="1" parent="BGl5naO4P5NcdGwBuhPD-1">
          <mxGeometry x="20" y="280" width="100" height="30" as="geometry" />
        </mxCell>
        <mxCell id="BGl5naO4P5NcdGwBuhPD-10" style="edgeStyle=orthogonalEdgeStyle;rounded=0;orthogonalLoop=1;jettySize=auto;html=1;entryX=0;entryY=0.5;entryDx=0;entryDy=0;" edge="1" parent="BGl5naO4P5NcdGwBuhPD-1" source="BGl5naO4P5NcdGwBuhPD-11" target="BGl5naO4P5NcdGwBuhPD-15">
          <mxGeometry relative="1" as="geometry" />
        </mxCell>
        <mxCell id="BGl5naO4P5NcdGwBuhPD-11" value="Processor config" style="rounded=1;whiteSpace=wrap;html=1;fillColor=#d5e8d4;strokeColor=#82b366;shadow=1;fontFamily=Verdana;" vertex="1" parent="BGl5naO4P5NcdGwBuhPD-1">
          <mxGeometry x="170" y="180" width="110" height="30" as="geometry" />
        </mxCell>
        <mxCell id="BGl5naO4P5NcdGwBuhPD-12" style="edgeStyle=orthogonalEdgeStyle;rounded=0;orthogonalLoop=1;jettySize=auto;html=1;entryX=0;entryY=0.5;entryDx=0;entryDy=0;" edge="1" parent="BGl5naO4P5NcdGwBuhPD-1" source="BGl5naO4P5NcdGwBuhPD-15" target="BGl5naO4P5NcdGwBuhPD-16">
          <mxGeometry relative="1" as="geometry">
            <Array as="points">
              <mxPoint x="380" y="255" />
            </Array>
          </mxGeometry>
        </mxCell>
        <mxCell id="BGl5naO4P5NcdGwBuhPD-13" style="edgeStyle=orthogonalEdgeStyle;rounded=0;orthogonalLoop=1;jettySize=auto;html=1;entryX=0;entryY=0.5;entryDx=0;entryDy=0;" edge="1" parent="BGl5naO4P5NcdGwBuhPD-1" source="BGl5naO4P5NcdGwBuhPD-15" target="BGl5naO4P5NcdGwBuhPD-21">
          <mxGeometry relative="1" as="geometry">
            <Array as="points">
              <mxPoint x="380" y="135" />
            </Array>
          </mxGeometry>
        </mxCell>
        <mxCell id="BGl5naO4P5NcdGwBuhPD-14" style="edgeStyle=orthogonalEdgeStyle;rounded=0;orthogonalLoop=1;jettySize=auto;html=1;entryX=0;entryY=0.5;entryDx=0;entryDy=0;" edge="1" parent="BGl5naO4P5NcdGwBuhPD-1" source="BGl5naO4P5NcdGwBuhPD-15" target="BGl5naO4P5NcdGwBuhPD-19">
          <mxGeometry relative="1" as="geometry" />
        </mxCell>
        <mxCell id="BGl5naO4P5NcdGwBuhPD-15" value="code model" style="rounded=1;whiteSpace=wrap;html=1;fillColor=#d5e8d4;strokeColor=#82b366;shadow=1;fontFamily=Verdana;" vertex="1" parent="BGl5naO4P5NcdGwBuhPD-1">
          <mxGeometry x="330" y="180" width="100" height="30" as="geometry" />
        </mxCell>
        <mxCell id="BGl5naO4P5NcdGwBuhPD-16" value="interpreted" style="rounded=1;whiteSpace=wrap;html=1;fillColor=#d5e8d4;strokeColor=#82b366;shadow=1;fontFamily=Verdana;" vertex="1" parent="BGl5naO4P5NcdGwBuhPD-1">
          <mxGeometry x="688" y="240" width="100" height="30" as="geometry" />
        </mxCell>
        <mxCell id="BGl5naO4P5NcdGwBuhPD-17" value="java source" style="rounded=1;whiteSpace=wrap;html=1;fillColor=#dae8fc;strokeColor=#6c8ebf;shadow=1;fontFamily=Verdana;" vertex="1" parent="BGl5naO4P5NcdGwBuhPD-1">
          <mxGeometry x="688" y="180" width="100" height="30" as="geometry" />
        </mxCell>
        <mxCell id="BGl5naO4P5NcdGwBuhPD-18" value="" style="edgeStyle=orthogonalEdgeStyle;rounded=0;orthogonalLoop=1;jettySize=auto;html=1;" edge="1" parent="BGl5naO4P5NcdGwBuhPD-1" source="BGl5naO4P5NcdGwBuhPD-19" target="BGl5naO4P5NcdGwBuhPD-17">
          <mxGeometry relative="1" as="geometry" />
        </mxCell>
        <mxCell id="BGl5naO4P5NcdGwBuhPD-19" value="AOT java" style="rounded=1;whiteSpace=wrap;html=1;fillColor=#d5e8d4;strokeColor=#82b366;shadow=1;fontFamily=Verdana;" vertex="1" parent="BGl5naO4P5NcdGwBuhPD-1">
          <mxGeometry x="488" y="180" width="100" height="30" as="geometry" />
        </mxCell>
        <mxCell id="BGl5naO4P5NcdGwBuhPD-20" value="" style="edgeStyle=orthogonalEdgeStyle;rounded=0;orthogonalLoop=1;jettySize=auto;html=1;" edge="1" parent="BGl5naO4P5NcdGwBuhPD-1" source="BGl5naO4P5NcdGwBuhPD-21" target="BGl5naO4P5NcdGwBuhPD-22">
          <mxGeometry relative="1" as="geometry" />
        </mxCell>
        <mxCell id="BGl5naO4P5NcdGwBuhPD-21" value="AOT target" style="rounded=1;whiteSpace=wrap;html=1;fillColor=#d5e8d4;strokeColor=#82b366;shadow=1;fontFamily=Verdana;" vertex="1" parent="BGl5naO4P5NcdGwBuhPD-1">
          <mxGeometry x="488" y="120" width="100" height="30" as="geometry" />
        </mxCell>
        <mxCell id="BGl5naO4P5NcdGwBuhPD-22" value="target source" style="rounded=1;whiteSpace=wrap;html=1;fillColor=#dae8fc;strokeColor=#6c8ebf;shadow=1;fontFamily=Verdana;" vertex="1" parent="BGl5naO4P5NcdGwBuhPD-1">
          <mxGeometry x="688" y="120" width="100" height="30" as="geometry" />
        </mxCell>
        <mxCell id="BGl5naO4P5NcdGwBuhPD-23" value="Compiling" style="text;strokeColor=none;fillColor=none;html=1;fontSize=24;fontStyle=1;verticalAlign=middle;align=center;" vertex="1" parent="BGl5naO4P5NcdGwBuhPD-1">
          <mxGeometry x="250" y="20" width="100" height="40" as="geometry" />
        </mxCell>
        <mxCell id="BGl5naO4P5NcdGwBuhPD-24" value="Runtime" style="text;strokeColor=none;fillColor=none;html=1;fontSize=24;fontStyle=1;verticalAlign=middle;align=center;" vertex="1" parent="BGl5naO4P5NcdGwBuhPD-1">
          <mxGeometry x="680" y="20" width="100" height="40" as="geometry" />
        </mxCell>
        <mxCell id="BGl5naO4P5NcdGwBuhPD-25" value="" style="endArrow=none;dashed=1;html=1;rounded=0;" edge="1" parent="BGl5naO4P5NcdGwBuhPD-1">
          <mxGeometry width="50" height="50" relative="1" as="geometry">
            <mxPoint x="620" y="360" as="sourcePoint" />
            <mxPoint x="620" as="targetPoint" />
          </mxGeometry>
        </mxCell>
      </root>
    </mxGraphModel>
  </diagram>
</mxfile>
